# xmcd
#
# Track frame offsets: 
#        150
#        24958
#        46600
#        60238
#        84518
#        114775
#        137305
#        168298
#        200463
#        224720
#        247968
#        274255
#        296488
#
# Disc length: 4360 seconds
#
# Revision: 34
# Processed by: cddbd v1.5.2PL0 Copyright (c) Steve Scherf et al.
# Submitted via: ExactAudioCopy v1.0b3
#
DISCID=a711060d
DTITLE=Mr.Children - Mr. Children 1996-2000
DYEAR=2001
DGENRE=JPop
TTITLE0=名もなき詩
TTITLE1=花 -Memento-Mori-
TTITLE2=Mirror
TTITLE3=Everything(It's you)
TTITLE4=ALIVE
TTITLE5=ニシエヒガシエ
TTITLE6=光の射す方へ
TTITLE7=終りなき旅
TTITLE8=ラララ
TTITLE9=つよがり
TTITLE10=口笛
TTITLE11=NOT FOUND
TTITLE12=Hallelujah
EXTD=YEAR: 2001
EXTT0=
EXTT1=
EXTT2=
EXTT3=
EXTT4=
EXTT5=
EXTT6=
EXTT7=
EXTT8=
EXTT9=
EXTT10=
EXTT11=
EXTT12=
PLAYORDER=
